<svg xmlns="http://www.w3.org/2000/svg" viewBox="0 0 298.91 150"><defs><style>.cls-1{fill:#fff;}</style></defs><g id="Camada_2" data-name="Camada 2"><g id="Camada_1-2" data-name="Camada 1"><path class="cls-1" d="M154.4,94.94l1.11-.35A78.44,78.44,0,0,1,169,91.48a48.55,48.55,0,0,1,7.42-.53,30.78,30.78,0,0,1,8.1,1,15.19,15.19,0,0,1,3.25,1.29,8.87,8.87,0,0,1,3.77,3.92,6.45,6.45,0,0,1,.43,4.76,14.37,14.37,0,0,1-2.33,4.62,31.42,31.42,0,0,1-4.28,4.72,74.84,74.84,0,0,1-8.66,6.69A142.68,142.68,0,0,1,158,128.35,196.56,196.56,0,0,1,130.28,139a186.86,186.86,0,0,1-19.83,4.74c-.66.12-1.33.19-2,.29l-.94.17a1.32,1.32,0,0,0-1.13,1c-.25.89-.49,1.78-.73,2.66a.87.87,0,0,0,.22.88,6.75,6.75,0,0,1,.56.64.4.4,0,0,1-.26.58,1.09,1.09,0,0,1-.9-.22,2.24,2.24,0,0,1-1-2c.06-.77.2-1.54.31-2.31,0-.21,0-.42.07-.61a1.24,1.24,0,0,0-1.05-.14,51,51,0,0,1-7.31.53,41.45,41.45,0,0,1-14-1.84,31.63,31.63,0,0,1-16.45-12.67,18.48,18.48,0,0,1-2.8-6.84,16.1,16.1,0,0,1,.62-8.59A29,29,0,0,1,67,108.75c1.32-1.93,2.7-3.82,4-5.73a4.19,4.19,0,0,1,.58-.61c.09-.07.25,0,.44-.07a2.38,2.38,0,0,1-.47,1.23c-.35.53-.73,1-1.11,1.55a53.37,53.37,0,0,0-4.56,7,22.75,22.75,0,0,0-2.13,5.64,12.74,12.74,0,0,0,.62,7.62,24.27,24.27,0,0,0,3.78,6.37,28.85,28.85,0,0,0,17.33,10.55,44.46,44.46,0,0,0,11.85.7c2.55-.18,5.08-.49,7.62-.72a1.35,1.35,0,0,0,1.17-.79c.07-.13.14-.25.2-.38a129.11,129.11,0,0,1,6.72-12.06,182.66,182.66,0,0,1,15.31-21.44c4.38-5.3,8.83-10.54,13.26-15.8,3.61-4.29,7.23-8.56,10.54-13.08,1.19-1.63,2.33-3.3,3.49-5a4.6,4.6,0,0,0,.25-.44c-.26-.15-.37,0-.5.12s-.23.17-.35.25c-2.48,1.76-4.95,3.55-7.46,5.27a109.26,109.26,0,0,1-10.75,6.67l-3.18,1.71a1.81,1.81,0,0,0-.84.63,1.69,1.69,0,0,0,.4,1,6.83,6.83,0,0,1,1,3.74,25.61,25.61,0,0,1-.67,4.62c0,.2-.18.34-.37.28s-.34-.21-.34-.33a7.32,7.32,0,0,1,0-1.48c.1-.87.29-1.74.39-2.62a5.62,5.62,0,0,0-1.17-4.09c-.37-.5-.6-.55-1.19-.29-.33.13-.64.31-1,.46a104.58,104.58,0,0,1-14.33,5.91,29.32,29.32,0,0,1-6.22,1.32,10.32,10.32,0,0,1-3.28-.22,7.57,7.57,0,0,1-4.84-3.55,13.57,13.57,0,0,1-1.91-5.25,26.93,26.93,0,0,1-.1-6.47,61.54,61.54,0,0,1,3-13.35,136.42,136.42,0,0,1,7.16-17.5,174,174,0,0,1,11.07-19.36q5.92-9.09,12.27-17.88c1.77-2.44,3.45-4.94,5.14-7.43.48-.7.86-1.46,1.29-2.2.05-.09.1-.19.14-.28.11-.28.18-.56-.06-.8a.66.66,0,0,0-.79-.07,7.78,7.78,0,0,0-.74.42,63.9,63.9,0,0,0-5.93,4.3c-2.91,2.27-5.61,4.79-8.33,7.27-3.45,3.16-6.94,6.28-10.3,9.53-3.9,3.77-7.68,7.66-11.5,11.51C92.52,44.41,83.8,54,74.92,63.47a66,66,0,0,1-6.48,6.14,15.64,15.64,0,0,1-2.67,1.51.62.62,0,0,1-.85-.2,3.23,3.23,0,0,1-.77-2.47,11.59,11.59,0,0,1,.66-2.67,31.23,31.23,0,0,1,1.92-4.15,145,145,0,0,1,9.88-15.37Q82.1,38.75,87.54,31.2c1.2-1.67,2.32-3.39,3.46-5.1a19.43,19.43,0,0,0,2-3.73,1.6,1.6,0,0,0,.11-1,5.26,5.26,0,0,0-.6.15,18.4,18.4,0,0,0-2.89,1.33,64.59,64.59,0,0,0-8,5.45c-3.55,2.78-7,5.65-10.27,8.76-.9.85-1.82,1.68-2.74,2.51C62.1,45.49,56,51.86,50,58.28,43.79,65,37.91,72,32.07,79L30.16,81.3a7.07,7.07,0,0,1-.65.69,1,1,0,0,1-1.07.29,1.25,1.25,0,0,1-.8-1A1.87,1.87,0,0,1,27.86,80c.36-.61.7-1.24,1.11-1.81,2-2.83,4.16-5.57,6.42-8.21,4.23-5,8.43-9.95,12.73-14.85C51.44,51.36,54.89,47.69,58.3,44s6.6-7.11,9.86-10.71c1.88-2.08,3.71-4.2,5.47-6.38,1.15-1.43,2.16-3,3.19-4.51A8.33,8.33,0,0,0,78.18,19a1.27,1.27,0,0,0-.9-1.67,5,5,0,0,0-1.1-.39,16.34,16.34,0,0,0-5.49-.31c-1.37.2-2.75.28-4.13.42a65,65,0,0,0-7.83,1.44A157.58,157.58,0,0,0,28.65,28.82,139.06,139.06,0,0,0,14.41,36.2a60.94,60.94,0,0,0-6.48,4.45A25.82,25.82,0,0,0,2.75,46,9.35,9.35,0,0,0,1.5,48.29,3,3,0,0,0,2.67,52a8.85,8.85,0,0,0,2.58,1.22,24.57,24.57,0,0,0,4.06.83,79.33,79.33,0,0,0,12.52.49,34.73,34.73,0,0,0,5.29-.43,11.93,11.93,0,0,1,1.8-.08,2.21,2.21,0,0,1,.43.09c-.09.15-.12.28-.19.31a4,4,0,0,1-.82.21,78.65,78.65,0,0,1-10.17.72c-2.37,0-4.75-.13-7.12-.28a28.59,28.59,0,0,1-7.36-1.56,7.25,7.25,0,0,1-2.11-1.2,4.26,4.26,0,0,1-1.45-4.5,8,8,0,0,1,1-2.42,21.15,21.15,0,0,1,3.49-4.28,49.8,49.8,0,0,1,7.68-5.86,119.28,119.28,0,0,1,11-6.09,173.24,173.24,0,0,1,21-8.8,133.42,133.42,0,0,1,18.14-4.9,53.58,53.58,0,0,1,11.08-1.08,9.77,9.77,0,0,1,3.63.7,5,5,0,0,1,1.76,1.17,4.39,4.39,0,0,1,1.22,3,7,7,0,0,1-.43,2.6,13.22,13.22,0,0,1-1.48,2.93,62.52,62.52,0,0,1-5.12,6.79c-2.53,2.87-5.09,5.72-7.62,8.59-.74.85-1.45,1.74-2.17,2.62a.56.56,0,0,0-.1.51c.25-.22.52-.43.76-.67,2.32-2.18,4.63-4.39,7-6.56A135.35,135.35,0,0,1,83,25.85c1.83-1.33,3.71-2.61,5.61-3.85.94-.62,2-1.12,3-1.65a5.93,5.93,0,0,1,2-.62,1.39,1.39,0,0,1,1.72,1.18,3.44,3.44,0,0,1-.09,1.88A21.94,21.94,0,0,1,93.45,27c-1.37,2.48-2.89,4.88-4.5,7.21q-5.49,7.9-11,15.78a138.93,138.93,0,0,0-9.68,15.87c-.14.27-.25.56-.43,1a1.91,1.91,0,0,0,.88-.55c2.52-2.29,5-4.64,7.33-7.1q3.22-3.39,6.5-6.73,7.93-8.15,15.9-16.28c3.13-3.18,6.33-6.29,9.49-9.45,5.75-5.74,11.78-11.17,17.82-16.59a106.66,106.66,0,0,1,9.78-7.85c1-.7,2-1.28,3.08-1.88a3,3,0,0,1,1.1-.36,1.71,1.71,0,0,1,2,1.31,3,3,0,0,1,.06,1.58,8.87,8.87,0,0,1-.8,2.41c-.36.69-.73,1.38-1.14,2-2.2,3.52-4.59,6.91-7,10.3-5,7.13-9.91,14.34-14.47,21.77A158.18,158.18,0,0,0,105.22,66.3a80.82,80.82,0,0,0-3.43,11.5,39,39,0,0,0-.88,7,18.06,18.06,0,0,0,.35,4.34,8.89,8.89,0,0,0,.89,2.38A6.41,6.41,0,0,0,107,94.93a13.05,13.05,0,0,0,4.23-.13A40.13,40.13,0,0,0,117.93,93,93.45,93.45,0,0,0,129.2,88.3a2.4,2.4,0,0,0,1-.6c0-.29-.22-.35-.4-.44A15.08,15.08,0,0,0,125.5,86a62.28,62.28,0,0,0-7.08-.64c-1.77-.13-3.54-.25-5.3-.4a10.52,10.52,0,0,1-1.47-.26,3.38,3.38,0,0,1-1.5-.75,2.05,2.05,0,0,1-.48-2.69,4.19,4.19,0,0,1,.71-.92A16.09,16.09,0,0,1,113,78a34.34,34.34,0,0,1,5.58-3.29c5.52-2.57,11.07-5.07,16.81-7.16A129.72,129.72,0,0,1,155.13,62a53.15,53.15,0,0,1,10.44-1.22,21.31,21.31,0,0,1,6,.53,12.42,12.42,0,0,1,2,.75,5.44,5.44,0,0,1,3.13,6.42,13,13,0,0,1-1.49,3.85c-.18.31-.36.61-.56.9a68,68,0,0,1-8.22,10c-3.79,3.68-7.51,7.42-11.4,11C154.85,94.4,154.71,94.59,154.4,94.94Zm-46.13,46.72a2.48,2.48,0,0,0,1.15,0l1.77-.35q6.8-1.27,13.46-3.1a193.57,193.57,0,0,0,37.73-14.75,116.16,116.16,0,0,0,16.13-9.86,59.1,59.1,0,0,0,6-5,27.38,27.38,0,0,0,4.15-5,10.43,10.43,0,0,0,1.37-3.09,4.1,4.1,0,0,0-1.93-4.94A13.8,13.8,0,0,0,185,94.07a19.8,19.8,0,0,0-5.34-.86c-2.2,0-4.39,0-6.59,0-1,0-2,.17-3.06.3a70.35,70.35,0,0,0-8.63,1.81,46,46,0,0,0-11,4.26,5,5,0,0,1-.57.28,1.39,1.39,0,0,1-1.66-.3,1.45,1.45,0,0,1-.3-1.76,5.58,5.58,0,0,1,.94-1.27c1.33-1.33,2.67-2.64,4-3.92,3.65-3.41,7.34-6.78,11-10.19a62.2,62.2,0,0,0,8.52-9.6c.53-.75,1-1.53,1.49-2.33a10.93,10.93,0,0,0,1.29-3.91A2.28,2.28,0,0,0,174,64.17,7.44,7.44,0,0,0,170.88,63a25.25,25.25,0,0,0-5.83-.21c-2.18.23-4.38.34-6.54.72A117.84,117.84,0,0,0,144.38,67a163.16,163.16,0,0,0-20.52,7.87c-2.42,1.11-4.83,2.22-7.13,3.56A28.27,28.27,0,0,0,112.86,81a13.26,13.26,0,0,0-1.13,1.12,2.32,2.32,0,0,0-.26.57,2.46,2.46,0,0,0,.64.26c1.33.18,2.67.37,4,.48,3.07.25,6.14.5,9.18,1a13.59,13.59,0,0,1,5.45,2,1.61,1.61,0,0,0,1.87.13c1.16-.61,2.34-1.17,3.5-1.78a129.2,129.2,0,0,0,13.35-8.3c2-1.42,4.05-2.88,6.07-4.31a3.21,3.21,0,0,1,.72-.45,4.1,4.1,0,0,1,.87-.16c.43-.66.88-1.33,1.33-2,.08-.12.13-.26.22-.37a.81.81,0,0,1,1.35-.1,1.58,1.58,0,0,1,.43,1.84,8.19,8.19,0,0,1-.75,1.4c-.86,1.3-1.75,2.59-2.64,3.87a203.08,203.08,0,0,1-12.79,16.17c-5.05,5.89-10.09,11.8-15,17.78a191.3,191.3,0,0,0-17.3,24.44c-1.15,2-2.23,4-3.33,5.93C108.43,140.89,108.16,141.2,108.27,141.66Z"/><path class="cls-1" d="M222.48,39c.08.29-.14.46-.28.65a23.27,23.27,0,0,1-3.87,3.94,57.83,57.83,0,0,1-9,5.87,60.32,60.32,0,0,1-5.85,2.8,6.7,6.7,0,0,1-2.56.63,5.69,5.69,0,0,1-1.37-.13,3.14,3.14,0,0,1-2.38-2.82,8.34,8.34,0,0,1,.12-1.79c.06-.56.19-1.11.28-1.67a.41.41,0,0,0-.06-.2c-.32-.09-.41.2-.56.37-1.37,1.49-2.71,3-4.08,4.48-.55.6-1.14,1.16-1.72,1.74A5.73,5.73,0,0,1,189.45,54a1.52,1.52,0,0,1-2.29-1,7.72,7.72,0,0,1-.2-.83c-.05-.27-.1-.54-.14-.79-.32-.18-.51,0-.73.12-.43.16-.84.39-1.28.51a1.71,1.71,0,0,1-2.08-.86,3.49,3.49,0,0,1-.47-2.25c.09-.7.21-1.4.3-2.1a.94.94,0,0,0-.21-.95,1.78,1.78,0,0,0-.54.17,8.09,8.09,0,0,0-1,.9c-1.67,1.69-3.31,3.4-5,5.09-.65.65-1.34,1.27-2,1.86a4.28,4.28,0,0,1-1.09.64.62.62,0,0,1-.94-.62,3.13,3.13,0,0,1,.16-1c.16-.54.38-1.06.57-1.6.09-.25.15-.52.29-1-.44.37-.71.58-1,.81-.72.63-1.43,1.28-2.15,1.9a5.47,5.47,0,0,1-2,1.12,1.78,1.78,0,0,1-2.23-.73,3.61,3.61,0,0,1-.65-2.62c0-.28.09-.55.15-.95a2.68,2.68,0,0,0-.52.23c-.41.33-.82.67-1.21,1-1.13,1-2.23,2.08-3.37,3.09-.63.57-1.3,1.09-2,1.6a3.82,3.82,0,0,1-.92.52,1.72,1.72,0,0,1-2.43-1.45,2.76,2.76,0,0,1,.15-1.36c.16-.46.32-.92.47-1.38-.21-.22-.36,0-.48,0-.74.41-1.47.86-2.22,1.26a5.87,5.87,0,0,1-1.26.55,1.75,1.75,0,0,1-2.34-1.49,4.94,4.94,0,0,1,.05-1.58c.13-.69.36-1.36.54-2,.12-.44.26-.88.34-1.34a2.2,2.2,0,0,0-.12-.67,3.05,3.05,0,0,0-.51.29,8.64,8.64,0,0,0-.66.69,88.7,88.7,0,0,1-7.52,7.5,7.56,7.56,0,0,1-1,.78,1.28,1.28,0,0,1-2.05-1.17A4,4,0,0,1,138,53.8a7.24,7.24,0,0,1,.47-1.07L141,47.66a8.35,8.35,0,0,0,.42-1,.67.67,0,0,0-.32-.82,2.65,2.65,0,0,0-.48-.23,3.71,3.71,0,0,1-2.12-2.25c0-.1-.09-.19-.14-.29a1.2,1.2,0,0,0-.12-.12c-.28.13-.41.42-.59.65-2.46,3.25-4.91,6.51-7.39,9.75-1.2,1.57-2.46,3.1-3.73,4.63A17.71,17.71,0,0,1,125,59.55a3.06,3.06,0,0,1-.71.45.39.39,0,0,1-.52-.24,2.09,2.09,0,0,1-.06-.82c.09-.52.23-1,.37-1.55a37.61,37.61,0,0,1,1.65-4.6l.39-.92a5.45,5.45,0,0,0-1.18,1c-1.84,1.78-3.74,3.48-5.74,5.07-.42.33-.83.66-1.27,1a7.81,7.81,0,0,1-1,.55,1.43,1.43,0,0,1-2-1.22,3.67,3.67,0,0,1,.09-1.36,11.36,11.36,0,0,1,.65-1.8,13.82,13.82,0,0,1,.93-1.79,57.46,57.46,0,0,1,7.22-9.57,24.56,24.56,0,0,1,4.83-4,10.35,10.35,0,0,1,1.31-.7,2.37,2.37,0,0,1,3.45,2.08,8,8,0,0,1-.13,1.68,3.43,3.43,0,0,1-.27.8,21.68,21.68,0,0,1-3.92,6.28,7.48,7.48,0,0,0-1.63,2.59c-.47,1.26-1,2.51-1.45,3.76a1.4,1.4,0,0,0-.11.74c.18-.19.39-.37.56-.58q4.74-5.52,9.14-11.33a35.43,35.43,0,0,0,3.12-4.82,22.89,22.89,0,0,1,4.05-5.43,6.36,6.36,0,0,1,1-.79,1,1,0,0,1,.92,0,.79.79,0,0,1,.49,1.11,3.75,3.75,0,0,1-.48.82c-.59.75-1.21,1.48-1.81,2.23s-1.37,1.71-2,2.61a8.22,8.22,0,0,0-.86,1.7.87.87,0,0,0,.45,1.25c.3.19.62.33.93.52a8.33,8.33,0,0,1,1,.7,2.17,2.17,0,0,1,.78,1.68,5,5,0,0,1-.47,2.06c-.61,1.4-1.24,2.79-1.84,4.18-.1.25-.33.47-.21.83a2,2,0,0,0,.83-.6c2.65-2.36,5.18-4.84,7.62-7.42l1.61-1.69a6.13,6.13,0,0,1,.7-.65.91.91,0,0,1,1.52.46,1.42,1.42,0,0,1-.09,1.14c-.24.51-.49,1-.75,1.52a18.12,18.12,0,0,0-1.61,4.49,4.82,4.82,0,0,0-.09,1.47.68.68,0,0,0,1,.63,5.82,5.82,0,0,0,.77-.34,16.49,16.49,0,0,0,4.74-3.72,23.57,23.57,0,0,0,1.69-2,36.29,36.29,0,0,1,5.3-5.5A6.68,6.68,0,0,1,166.28,40a4.9,4.9,0,0,1,1.24-.26,2.63,2.63,0,0,1,2.77,3A6.19,6.19,0,0,1,169,46a13.05,13.05,0,0,0-2.38,4.93,2.73,2.73,0,0,0-.07,1.47A.9.9,0,0,0,168,53a3.7,3.7,0,0,0,.62-.41,48,48,0,0,0,7.81-7.79c.35-.45.72-.87,1.11-1.29a3,3,0,0,1,.63-.56,1.13,1.13,0,0,1,.59-.15c.2,0,.37.44.27.73a5.23,5.23,0,0,1-.48,1c-.69,1.11-1.41,2.21-2.11,3.32-.31.51-.6,1-.88,1.57a3.16,3.16,0,0,0-.2.61c.45-.39.71-.61,1-.85,1.71-1.64,3.42-3.29,5.15-4.92A14.61,14.61,0,0,1,183,43.06a1.13,1.13,0,0,1,1.8.38,2,2,0,0,1,.2,1.64c-.29,1.13-.58,2.27-.85,3.4a12.58,12.58,0,0,0-.27,1.36,3.3,3.3,0,0,0,0,.83.49.49,0,0,0,.55.4,6.34,6.34,0,0,0,3.14-1.65,1,1,0,0,0,.17-.27,27.57,27.57,0,0,1,5-6.6c.79-.81,1.6-1.6,2.42-2.39a8.51,8.51,0,0,1,1.15-.93,1.7,1.7,0,0,1,2.46.34c.26.29.48.61.75,1,.28-.06.54-.14.81-.18a1.11,1.11,0,0,1,1.36,1.11,3.36,3.36,0,0,1-.15.94,7.15,7.15,0,0,1-.43,1.08,43.33,43.33,0,0,0-2,5.49,2,2,0,0,0,2.34,2.7,8.65,8.65,0,0,0,1.24-.31,40.85,40.85,0,0,0,5.4-2.22,69.83,69.83,0,0,0,8.07-4.7,37.78,37.78,0,0,0,5.7-4.94c.19-.19.31-.48.64-.51ZM117.74,56.25a3,3,0,0,0,1.22-.74,87.11,87.11,0,0,0,6.67-6.07,2,2,0,0,1,2.05-.81c.06,0,.13,0,.25-.06a28.83,28.83,0,0,0,3.51-6.83,2,2,0,0,0,0-.5,1.54,1.54,0,0,0-1,.31,10,10,0,0,0-1.14.78c-1.11.93-2.25,1.84-3.3,2.84a47.69,47.69,0,0,0-8,10.52C117.91,55.81,117.87,56,117.74,56.25ZM156,55l.17.14c.34-.26.69-.49,1-.77,3.31-3,6.63-6,9.72-9.21a1.48,1.48,0,0,1,.39-.36A2.3,2.3,0,0,0,168.33,43c.07-.33.32-.72,0-1s-.73,0-1.07.12a10,10,0,0,0-2.79,1.93,48.76,48.76,0,0,0-8.27,10.33C156.13,54.57,156.05,54.76,156,55Zm42.29-14a1.84,1.84,0,0,0-1.09.67c-1.78,1.87-3.58,3.73-5.32,5.64a22.37,22.37,0,0,0-3.07,4.44,2.94,2.94,0,0,0-.32.67,2.2,2.2,0,0,0,.05.6,2.69,2.69,0,0,0,1-.68c1-1,2-1.9,2.95-2.91,1.75-1.85,3.46-3.74,5.18-5.61a2.64,2.64,0,0,0,.34-.41A2.58,2.58,0,0,0,198.25,41Z"/><path class="cls-1" d="M217.59,101.8c.26-.18.53-.34.77-.54l9.33-8.06a6.64,6.64,0,0,1,.63-.56.85.85,0,0,1,1.39.65,2,2,0,0,1-.13.83c-.16.47-.38.91-.58,1.37l-1.27,2.92a4.34,4.34,0,0,0-.38,2.07,3.08,3.08,0,0,0,.08.53.63.63,0,0,0,.81.5,4.06,4.06,0,0,0,1.15-.5c1.18-.78,2.36-1.57,3.5-2.41s2.19-1.68,3.3-2.51a4.43,4.43,0,0,0,1.31-1.51,15.91,15.91,0,0,1,3.33-4.11,4.09,4.09,0,0,1,1.42-.92,1.5,1.5,0,0,1,1.87.57,2,2,0,0,1,.41,1.29,3.87,3.87,0,0,1-.6,2,.71.71,0,0,1-.78.43.88.88,0,0,1-.72-.7,7.24,7.24,0,0,1,0-1,1.76,1.76,0,0,0-.32.21,22.86,22.86,0,0,0-4.77,6.72,11.15,11.15,0,0,0-.47,1.52,1.93,1.93,0,0,0,0,.42c0,1,.47,1.4,1.41,1.05a7.36,7.36,0,0,0,1.78-.93c1.5-1.06,3-2.16,4.44-3.29,1.84-1.45,3.63-3,5.46-4.41a5.52,5.52,0,0,0,.87-1.06c.27-.38.59-.36.83,0a1.11,1.11,0,0,1,.16,1,10.07,10.07,0,0,1-.45,1.07c-.43.9-.89,1.78-1.32,2.67a4.89,4.89,0,0,0-.53,1.83c-.09,1.38.75,1.67,1.71,1.23a33.68,33.68,0,0,0,5.91-3.55,1.86,1.86,0,0,0,.68-.93c.1-.3.17-.61.29-.91a1.19,1.19,0,0,0,0-1.21.93.93,0,0,1-.12-.29,1.09,1.09,0,0,1,.37-1.33,4.55,4.55,0,0,1,.79-.53,6.46,6.46,0,0,1,3.16-.81c.23,0,.57.05.67.2.41.59,1,.49,1.52.42a10.91,10.91,0,0,0,1.76-.4c5.16-1.53,10.31-3.08,15.54-4.39,3-.74,6-1.46,9-2.14a12.4,12.4,0,0,1,3.38-.32,7.76,7.76,0,0,1,2.69.57A3.36,3.36,0,0,1,298.69,89a8.46,8.46,0,0,1-4.46,4.89.84.84,0,0,1-.86.07c0-.31.2-.4.35-.52.77-.57,1.55-1.13,2.31-1.7a5.45,5.45,0,0,0,2.05-3.15,1.81,1.81,0,0,0-1.41-2.42,6.74,6.74,0,0,0-3.06-.1c-1.82.31-3.62.66-5.42,1.07-5.67,1.27-11.24,2.91-16.79,4.62-1.29.4-2.58.78-3.87,1.17-.26.08-.52.19-.81.29,0,.29,0,.53,0,.77a3.71,3.71,0,0,1-.31,2.18,14.79,14.79,0,0,1-5.71,6.56,7.73,7.73,0,0,1-1.85.78,2.59,2.59,0,0,1-3.46-2.17,6,6,0,0,1,0-1.27c0-.3.08-.61.14-1-.3.15-.49.22-.67.32-.9.49-1.81,1-2.7,1.48a4.73,4.73,0,0,1-1.94.53,1.8,1.8,0,0,1-1.6-.68,3.18,3.18,0,0,1-.76-2.86c.09-.38.19-.75.28-1.13,0-.17,0-.34.09-.66-.35.23-.58.37-.79.53-2.29,1.86-4.62,3.64-7.05,5.31a9.72,9.72,0,0,1-1.76,1,2.52,2.52,0,0,1-3.65-2.11,4.23,4.23,0,0,1,.15-1.9c.1-.33.16-.67.24-1-.44-.07-.65.21-.89.39-1.2.87-2.38,1.78-3.59,2.65a15,15,0,0,1-1.52,1,5.51,5.51,0,0,1-1.18.48,1.88,1.88,0,0,1-2.55-1.65,5.19,5.19,0,0,1,.12-2.11c.15-.62.31-1.24.44-1.86.06-.27.08-.55.13-1a6.7,6.7,0,0,0-.67.46l-4.39,4a31.13,31.13,0,0,1-3.61,3,9.47,9.47,0,0,1-1.18.71.67.67,0,0,1-1-.39,2.61,2.61,0,0,1-.16-1.56,10.66,10.66,0,0,1,.3-1.24,32.8,32.8,0,0,1,2-5.14c.13-.28.24-.58.36-.87,0,0,0-.07-.06-.13s-.18,0-.24.11c-1.26,1.14-2.52,2.28-3.68,3.54-2.57,2.78-5,5.67-7.39,8.64a4.36,4.36,0,0,1-.35.4.93.93,0,0,1-1.48-.06,1.63,1.63,0,0,1-.31-1.78,19.06,19.06,0,0,1,1.47-3.18,2.88,2.88,0,0,0,.4-1c-.21.16-.42.32-.62.49-1.86,1.58-3.71,3.18-5.59,4.74a18.11,18.11,0,0,1-3.44,2.3,12.92,12.92,0,0,1-1.75.77,1.94,1.94,0,0,1-2.33-.8,2.79,2.79,0,0,1-.57-1.57,6.31,6.31,0,0,1,.37-2.72c.27-.69.53-1.39.84-2.06a2.61,2.61,0,0,0,.23-2,2.25,2.25,0,0,1,.21-1.65,2.45,2.45,0,0,1,.84-.94c.38-.27.74,0,1.16.06.34-.43.67-.84,1-1.26a34.07,34.07,0,0,1,2.88-3.55,14.49,14.49,0,0,1,3.52-2.72c.47-.25,1-.41,1.46-.63A1.85,1.85,0,0,1,207,91.44a2.27,2.27,0,0,1-.18,1,8.24,8.24,0,0,1-.9,1.55,24.67,24.67,0,0,1-8.25,6.91,4.15,4.15,0,0,0-2,2.07c-.42,1-.86,1.94-1.26,2.93a5.13,5.13,0,0,0-.29,1.23c-.09.87.41,1.28,1.24,1.06a2.51,2.51,0,0,0,.68-.28c1.07-.62,2.17-1.2,3.19-1.9a58.4,58.4,0,0,0,6-4.78c.76-.69,1.52-1.39,2.3-2.06a12.77,12.77,0,0,0,2.18-2.46c.4-.58.8-1.17,1.17-1.78a58.24,58.24,0,0,1,3.38-4.89,3.72,3.72,0,0,1,.48-.57.91.91,0,0,1,1.06-.25,1.12,1.12,0,0,1,.66,1.12,2,2,0,0,1-.31.77c-.58.89-1.17,1.78-1.79,2.64-1.33,1.84-2.68,3.66-4,5.49a2.58,2.58,0,0,0-.57,1,3.07,3.07,0,0,0,.46-.27c.4-.35.82-.69,1.18-1.07,2-2.14,4.27-4,6.49-6,.37-.33.74-.66,1.13-1a4.29,4.29,0,0,1,.6-.42.58.58,0,0,1,.76.18,1.69,1.69,0,0,1,.36,1.49,15.32,15.32,0,0,1-.53,1.62c-.78,1.94-1.58,3.87-2.37,5.8-.13.32-.23.65-.35,1ZM265.19,94a1,1,0,0,0-.95-.09c-.52.12-1,.27-1.54.37a4.31,4.31,0,0,0-2.64,1.66,9.12,9.12,0,0,0-.84,1.22c-.57,1.06-1.11,2.13-1.64,3.21a1.33,1.33,0,0,0-.11,1.25,4.34,4.34,0,0,0,.53,0,6.49,6.49,0,0,0,2.2-1,14.29,14.29,0,0,0,4.3-4.62,10.71,10.71,0,0,0,.68-1.55A1,1,0,0,0,265.19,94ZM198.4,98.59a28.1,28.1,0,0,0,3-2.43,21.87,21.87,0,0,0,3.21-3.65c.08-.11.28-.25.07-.43A18,18,0,0,0,198.4,98.59Z"/><path class="cls-1" d="M158.75,32a2.33,2.33,0,0,1-.21.42,10.41,10.41,0,0,1-.68.81c-.69.7-1.38,1.42-2.1,2.1-.52.47-1.08.9-1.65,1.32a.66.66,0,0,1-.87-.1.78.78,0,0,1-.13-.88,3.08,3.08,0,0,1,.37-.52l3-3.48a4.86,4.86,0,0,1,.6-.6.87.87,0,0,1,1.37.19A5.53,5.53,0,0,1,158.75,32Z"/><path class="cls-1" d="M230.67,86.83c-.21-.15-.38-.27-.54-.4a.58.58,0,0,1-.16-.68,5.05,5.05,0,0,1,1.54-2.24,3.13,3.13,0,0,1,.93-.47,1,1,0,0,1,1,.26.86.86,0,0,1-.12,1.43,6.74,6.74,0,0,0-1.86,1.54A4.12,4.12,0,0,1,230.67,86.83Z"/><path class="cls-1" d="M253.88,86.62a.68.68,0,0,1-.75-.59,1.62,1.62,0,0,1,.14-.7c.39-.75.81-1.48,1.23-2.22a.93.93,0,0,1,.94-.54,1.17,1.17,0,0,1,1,.71.65.65,0,0,1,0,.7,13.75,13.75,0,0,1-2,2.34A2.51,2.51,0,0,1,253.88,86.62Z"/><path class="cls-1" d="M222.5,39l.08-.24.11.12-.21.1Z"/></g></g></svg>