<svg width="256" height="199" viewBox="0 0 256 199" fill="none" xmlns="http://www.w3.org/2000/svg">
<path id="Vector" d="M205.072 125.958C205.763 125.737 206.155 125.619 206.546 125.489C212.358 123.522 218.332 122.277 224.392 121.365C227.66 120.876 230.947 120.648 234.241 120.661C237.868 120.674 241.481 121.007 245.003 121.971C246.504 122.381 247.958 122.935 249.321 123.684C251.533 124.896 253.209 126.623 254.331 128.884C255.335 130.916 255.511 133.021 254.905 135.19C254.279 137.438 253.17 139.451 251.806 141.328C250.143 143.621 248.206 145.673 246.112 147.576C242.525 150.846 238.65 153.759 234.613 156.449C226.734 161.714 218.443 166.242 209.866 170.268C197.923 175.871 185.68 180.673 173.026 184.439C164.364 187.012 155.585 189.11 146.688 190.726C145.807 190.889 144.92 190.98 144.033 191.117C143.616 191.182 143.198 191.254 142.781 191.332C142.018 191.475 141.496 191.899 141.281 192.654C140.948 193.827 140.635 195.013 140.309 196.186C140.185 196.635 140.296 197.013 140.609 197.352C140.863 197.625 141.13 197.892 141.352 198.192C141.548 198.459 141.333 198.896 141.013 198.961C140.57 199.052 140.165 198.941 139.813 198.674C138.932 198.01 138.398 197.137 138.482 196.016C138.561 194.987 138.75 193.97 138.887 192.947C138.926 192.674 138.958 192.4 138.991 192.14C138.528 191.788 138.045 191.892 137.595 191.957C134.373 192.446 131.131 192.635 127.883 192.654C121.602 192.693 115.353 192.289 109.359 190.224C100.201 187.071 92.8826 181.487 87.5079 173.415C85.662 170.646 84.4097 167.616 83.7835 164.339C83.0399 160.469 83.2747 156.664 84.6054 152.944C85.7012 149.876 87.1166 146.957 88.956 144.266C90.704 141.705 92.5304 139.191 94.3306 136.663C94.5459 136.363 94.8198 136.096 95.1003 135.855C95.2112 135.764 95.4264 135.796 95.6808 135.757C95.6417 136.441 95.3612 136.93 95.0611 137.386C94.5915 138.09 94.0958 138.774 93.587 139.451C91.3498 142.422 89.269 145.497 87.534 148.794C86.2817 151.172 85.2902 153.648 84.6967 156.286C83.914 159.746 84.2336 163.101 85.5185 166.385C86.7317 169.48 88.4733 172.268 90.5475 174.842C96.5287 182.263 104.193 186.98 113.566 188.843C118.764 189.879 124.028 190.133 129.305 189.762C132.684 189.52 136.049 189.123 139.422 188.81C140.146 188.745 140.654 188.406 140.98 187.768C141.065 187.598 141.157 187.436 141.241 187.266C143.844 181.722 146.994 176.49 150.171 171.265C156.243 161.277 163.066 151.824 170.508 142.826C176.327 135.796 182.23 128.838 188.113 121.86C192.907 116.179 197.714 110.511 202.111 104.51C203.696 102.347 205.209 100.132 206.748 97.9429C206.872 97.767 206.963 97.5585 207.074 97.3566C206.729 97.1611 206.592 97.4282 206.409 97.5194C206.246 97.6041 206.102 97.741 205.952 97.8452C202.652 100.184 199.371 102.556 196.038 104.843C191.42 108.015 186.724 111.058 181.766 113.69C180.351 114.439 178.942 115.195 177.54 115.957C177.135 116.179 176.672 116.342 176.424 116.791C176.398 117.3 176.711 117.671 176.959 118.062C177.912 119.586 178.29 121.235 178.283 123.026C178.283 125.118 177.768 127.124 177.39 129.151C177.344 129.411 177.155 129.607 176.901 129.522C176.711 129.463 176.457 129.248 176.444 129.086C176.398 128.434 176.385 127.769 176.464 127.124C176.601 125.958 176.842 124.805 176.979 123.639C177.207 121.632 176.627 119.827 175.426 118.218C174.931 117.56 174.637 117.489 173.848 117.827C173.418 118.01 173 118.238 172.583 118.446C166.412 121.476 160.111 124.193 153.55 126.284C150.856 127.144 148.11 127.769 145.279 128.03C143.805 128.167 142.357 128.069 140.935 127.743C138.13 127.092 136.017 125.463 134.503 123.046C133.16 120.902 132.344 118.564 131.973 116.068C131.549 113.215 131.575 110.354 131.829 107.488C132.371 101.409 133.916 95.5519 135.782 89.7729C138.358 81.7983 141.639 74.1039 145.285 66.5658C149.59 57.6595 154.58 49.1572 159.987 40.8764C165.232 32.8431 170.652 24.9272 176.287 17.1546C178.636 13.9165 180.866 10.6003 183.117 7.29708C183.749 6.36541 184.258 5.35555 184.826 4.37827C184.897 4.25448 184.963 4.13069 185.015 4.00039C185.158 3.64206 185.256 3.26417 184.936 2.95145C184.623 2.65175 184.245 2.68432 183.886 2.85372C183.547 3.0166 183.221 3.20554 182.901 3.40099C180.123 5.09494 177.585 7.12117 175.022 9.11482C171.154 12.1248 167.573 15.4606 163.96 18.7638C159.374 22.9531 154.737 27.0902 150.275 31.4033C145.103 36.407 140.074 41.5605 135.006 46.6749C122.887 58.9104 111.296 71.6476 99.5031 84.1894C96.7896 87.0691 93.9849 89.8446 90.8997 92.3334C89.8169 93.2064 88.545 93.695 87.3514 94.3465C86.9209 94.5811 86.5361 94.4573 86.223 94.0729C85.4533 93.1217 85.0554 92.0402 85.1924 90.8023C85.3294 89.5839 85.6555 88.4047 86.0795 87.258C86.7774 85.3556 87.6514 83.5378 88.6298 81.7657C92.5434 74.6772 96.9723 67.9079 101.747 61.3732C106.606 54.7277 111.446 48.0691 116.26 41.3911C117.851 39.1759 119.345 36.8891 120.852 34.6218C121.895 33.0516 122.854 31.4359 123.532 29.6702C123.654 29.3532 123.7 28.9253 123.669 28.3868C123.395 28.4584 123.128 28.4975 122.88 28.5887C121.55 29.0643 120.265 29.6442 119.038 30.3478C115.307 32.4718 111.811 34.928 108.433 37.5732C103.73 41.2608 99.1313 45.0722 94.7937 49.1963C93.6001 50.3299 92.3738 51.431 91.1541 52.5321C82.4725 60.3438 74.4301 68.794 66.4529 77.3158C58.1496 86.183 50.3485 95.4737 42.5866 104.81C41.7452 105.82 40.9037 106.836 40.0558 107.846C39.7818 108.165 39.4948 108.485 39.1818 108.765C38.7839 109.123 38.3273 109.377 37.7663 109.149C37.1532 108.895 36.7879 108.432 36.6966 107.768C36.6184 107.188 36.6966 106.634 36.9967 106.133C37.4728 105.325 37.9229 104.491 38.4643 103.728C41.1581 99.9822 43.9889 96.3467 46.9893 92.8415C52.6119 86.2612 58.1887 79.6352 63.9025 73.1331C68.3118 68.1164 72.8972 63.2495 77.4174 58.3371C81.7811 53.594 86.1969 48.8966 90.5214 44.1209C93.013 41.365 95.446 38.5504 97.7811 35.6642C99.3139 33.7683 100.651 31.7095 102.021 29.6833C102.947 28.3086 103.593 26.797 103.834 25.1357C104.017 23.9043 103.788 23.4482 102.627 22.914C102.158 22.699 101.669 22.4905 101.166 22.3993C98.7595 21.9432 96.3461 21.6305 93.874 21.9888C92.0607 22.256 90.2214 22.3537 88.395 22.5426C84.8793 22.901 81.4354 23.6763 77.9914 24.4646C64.183 27.6245 50.916 32.3675 38.0403 38.2312C31.5698 41.1761 25.2168 44.3425 19.1247 48.017C16.1373 49.8152 13.2543 51.7633 10.5148 53.9198C7.91226 55.9656 5.55759 58.2589 3.63994 60.9692C2.96158 61.9335 2.35498 62.9368 1.97014 64.0574C1.25918 66.1227 1.7549 67.7124 3.52905 69.009C4.56615 69.7712 5.74675 70.2403 6.95996 70.6182C8.71455 71.1655 10.5213 71.4847 12.3477 71.7258C17.8723 72.4425 23.4166 72.5467 28.9804 72.3773C31.335 72.3057 33.6832 72.2535 36.0052 71.817C36.7814 71.6737 37.5968 71.7323 38.399 71.7128C38.5621 71.7128 38.7317 71.7779 38.973 71.8366C38.8491 72.032 38.81 72.2079 38.7187 72.2405C38.3664 72.3643 38.0012 72.4816 37.6294 72.5272C33.1418 73.0419 28.6477 73.5501 24.121 73.4784C20.9706 73.4263 17.8136 73.309 14.6697 73.107C11.3171 72.892 8.06228 72.1167 4.89228 71.0352C3.8878 70.6964 2.91593 70.11 2.08755 69.4455C0.169898 67.9079 -0.325822 65.8165 0.169898 63.4776C0.411235 62.3179 0.952614 61.2689 1.56574 60.2591C2.84418 58.1547 4.40961 56.2783 6.19029 54.5843C9.3081 51.6199 12.7716 49.1181 16.3917 46.8117C21.0815 43.8212 25.9734 41.2086 30.9437 38.7329C39.9645 34.2374 49.2397 30.3348 58.7692 27.0577C66.6551 24.3473 74.6779 22.1322 82.8638 20.5555C87.7232 19.6173 92.6282 19.0375 97.5919 19.1156C99.2617 19.1417 100.866 19.4153 102.412 20.0473C103.299 20.4056 104.082 20.9138 104.741 21.6044C105.797 22.7055 106.319 24.0346 106.371 25.5526C106.411 26.7449 106.189 27.8916 105.804 29.0122C105.321 30.3999 104.636 31.6769 103.828 32.9018C101.753 36.0486 99.5161 39.0717 97.0245 41.8993C93.6718 45.7172 90.2735 49.496 86.9144 53.3008C85.9229 54.428 84.9837 55.6072 84.0314 56.7734C83.9009 56.9363 83.8292 57.1513 83.8879 57.451C84.2271 57.1578 84.5793 56.8712 84.9054 56.565C87.9906 53.6657 91.0497 50.7339 94.1545 47.8541C99.2943 43.085 104.545 38.4332 110.226 34.3025C112.659 32.5304 115.151 30.8365 117.669 29.1881C118.921 28.3672 120.284 27.6961 121.615 27.0055C122.45 26.5755 123.356 26.2889 124.302 26.1716C125.548 26.0217 126.278 26.5234 126.585 27.7352C126.8 28.5822 126.702 29.4162 126.455 30.2371C125.868 32.1786 125.085 34.0354 124.106 35.8141C122.287 39.1108 120.278 42.2902 118.132 45.3849C113.279 52.3757 108.387 59.3469 103.514 66.3247C98.7986 73.081 94.4219 80.0392 90.6584 87.3753C90.4757 87.7336 90.3192 88.1115 90.0779 88.6392C90.6845 88.4764 90.9584 88.1636 91.2519 87.8965C94.6046 84.867 97.8724 81.7527 100.984 78.4755C103.834 75.4786 106.724 72.5141 109.62 69.5497C116.651 62.3439 123.669 55.1251 130.74 47.9584C134.901 43.7365 139.154 39.6059 143.355 35.4232C150.986 27.8134 158.989 20.6011 167.019 13.4083C171.154 9.70118 175.466 6.19601 180.005 2.99054C181.31 2.07189 182.712 1.29007 184.102 0.501733C184.539 0.254156 185.06 0.0912761 185.563 0.0261242C186.926 -0.149786 187.819 0.469157 188.243 1.76568C188.472 2.45629 188.465 3.15342 188.328 3.85706C188.106 4.97115 187.774 6.04616 187.259 7.05602C186.782 7.97466 186.287 8.88678 185.739 9.75982C182.823 14.4312 179.647 18.9267 176.483 23.4222C169.824 32.8822 163.307 42.4465 157.254 52.3105C150.301 63.6405 144.457 75.5242 139.754 87.9551C137.876 92.9262 136.323 98.0016 135.208 103.207C134.543 106.295 134.132 109.416 134.034 112.57C133.975 114.498 134.08 116.427 134.497 118.322C134.738 119.43 135.136 120.486 135.684 121.482C137.1 124.062 139.298 125.476 142.181 125.939C144.072 126.238 145.938 126.089 147.797 125.776C150.817 125.261 153.758 124.44 156.648 123.417C161.755 121.613 166.771 119.606 171.604 117.156C172.054 116.928 172.563 116.778 172.883 116.355C172.889 115.964 172.589 115.892 172.354 115.769C170.574 114.856 168.649 114.433 166.699 114.068C163.588 113.482 160.424 113.456 157.287 113.221C154.939 113.045 152.591 112.889 150.249 112.693C149.597 112.641 148.945 112.498 148.305 112.348C147.562 112.179 146.883 111.853 146.303 111.351C145.214 110.393 144.953 109.051 145.664 107.781C145.912 107.338 146.257 106.934 146.609 106.556C147.666 105.409 148.86 104.426 150.125 103.513C152.467 101.839 154.932 100.373 157.541 99.1613C164.879 95.7538 172.256 92.4246 179.862 89.6556C188.407 86.5414 197.121 84.0135 206.05 82.2674C210.623 81.3748 215.228 80.6386 219.911 80.6581C222.592 80.6712 225.285 80.5865 227.901 81.3553C228.801 81.6224 229.695 81.9416 230.536 82.3521C234.006 84.0656 235.461 87.0821 234.685 90.8674C234.313 92.6787 233.628 94.3726 232.708 95.9753C232.473 96.3858 232.232 96.7897 231.965 97.1741C228.684 101.891 225.181 106.419 221.039 110.446C216.01 115.332 211.066 120.297 205.9 125.04C205.678 125.248 205.496 125.496 205.078 125.965L205.072 125.958ZM143.805 187.931C144.32 188.081 144.822 187.963 145.331 187.859C146.114 187.703 146.896 187.546 147.686 187.403C153.7 186.276 159.655 184.901 165.558 183.298C182.96 178.555 199.638 171.969 215.671 163.72C223.126 159.883 230.347 155.648 237.091 150.644C239.89 148.566 242.616 146.403 245.121 143.973C247.182 141.966 249.087 139.829 250.632 137.386C251.441 136.109 252.094 134.747 252.452 133.275C253.17 130.363 252.315 128.226 249.889 126.734C248.558 125.913 247.169 125.242 245.669 124.799C243.353 124.121 240.999 123.678 238.585 123.645C235.67 123.613 232.747 123.619 229.832 123.691C228.475 123.724 227.112 123.912 225.762 124.088C221.881 124.597 218.084 125.489 214.308 126.486C209.24 127.822 204.328 129.555 199.749 132.148C199.502 132.285 199.247 132.402 198.986 132.513C198.171 132.864 197.427 132.773 196.788 132.115C196.149 131.457 195.953 130.597 196.39 129.789C196.723 129.177 197.147 128.59 197.636 128.102C199.397 126.343 201.184 124.597 203.011 122.903C207.87 118.388 212.769 113.912 217.621 109.39C221.796 105.501 225.651 101.318 228.951 96.6529C229.656 95.6561 230.321 94.6267 230.915 93.5582C231.821 91.949 232.382 90.2159 232.63 88.3721C232.826 86.9453 232.349 85.8963 231.162 85.1276C229.877 84.2936 228.469 83.7659 226.962 83.5769C224.392 83.2512 221.828 83.0297 219.226 83.3033C216.323 83.6095 213.408 83.7463 210.531 84.2545C204.178 85.3751 197.936 86.9453 191.766 88.8282C182.438 91.6753 173.378 95.2196 164.514 99.272C161.305 100.744 158.102 102.217 155.05 103.996C153.263 105.038 151.508 106.139 149.91 107.475C149.369 107.924 148.879 108.439 148.403 108.954C148.234 109.136 148.181 109.429 148.058 109.716C148.39 109.853 148.638 110.022 148.905 110.061C150.68 110.289 152.447 110.55 154.228 110.693C158.311 111.019 162.388 111.358 166.425 112.094C168.989 112.563 171.5 113.208 173.659 114.726C174.513 115.325 175.257 115.365 176.144 114.902C177.683 114.094 179.255 113.345 180.801 112.537C186.978 109.292 192.809 105.488 198.536 101.52C201.243 99.6434 203.911 97.7084 206.598 95.806C206.905 95.591 207.211 95.3434 207.55 95.2066C207.883 95.0763 208.268 95.0697 208.705 94.9916C209.285 94.125 209.879 93.2259 210.479 92.3203C210.583 92.164 210.655 91.9881 210.766 91.8382C211.268 91.1606 211.966 91.0955 212.566 91.7014C213.251 92.392 213.532 93.2259 213.134 94.1511C212.86 94.7961 212.521 95.4216 212.129 96.0079C210.981 97.7279 209.814 99.4349 208.633 101.135C203.422 108.641 197.577 115.658 191.642 122.583C184.936 130.402 178.244 138.239 171.669 146.168C163.184 156.404 155.474 167.167 148.697 178.601C147.164 181.188 145.729 183.833 144.268 186.465C144.027 186.895 143.668 187.318 143.818 187.924L143.805 187.931Z" fill="#EFEBE0"/>
</svg>
