<svg id="Capa_1" enable-background="new 0 0 512 512" height="512" viewBox="0 0 512 512" width="512" xmlns="http://www.w3.org/2000/svg"><g><path d="m386.958 391.004-73.344-31.411c-6.095-2.61-10.033-8.581-10.033-15.212v-29.445c26.673-15.354 45.29-43.196 47.806-75.485h4.815c7.768 0 15.212-3.305 20.426-9.066 5.21-5.759 7.751-13.518 6.973-21.289-.631-6.293-3.564-11.963-7.94-16.284.039-.309.065-.622.065-.941v-24.049c0-39.179-18.917-74.023-48.097-95.878-.008-39.49-32.138-71.944-71.629-71.944-39.471 0-71.585 32.42-71.627 71.882-3.519 2.633-6.914 5.465-10.16 8.503-22.144 20.721-35.511 48.738-37.639 78.893-.292 4.132 2.821 7.718 6.953 8.01 4.114.285 7.718-2.821 8.01-6.953 1.86-26.367 13.554-50.87 32.925-68.996 19.462-18.213 44.868-28.242 71.538-28.242 57.746 0 104.726 46.979 104.726 104.726v17.106c-1.84-.362-3.735-.557-5.669-.557h-10.879c-4.705 0-8.532-3.827-8.532-8.532v-5.291c0-16.211-9.17-30.321-22.604-37.417 6.905-4.094 10.875-6.894 11.446-7.303 3.369-2.406 4.148-7.085 1.744-10.455-2.403-3.37-7.086-4.154-10.458-1.754-.511.364-51.946 36.49-124.924 45.856-8.264 1.061-14.496 8.081-14.496 16.363 0 4.705-3.827 8.532-8.532 8.532h-12.023c-7.768 0-15.212 3.305-20.426 9.066-5.21 5.758-7.752 13.517-6.974 21.287 1.388 13.866 13.925 24.728 28.544 24.728h3.668c1.751 22.729 11.443 43.861 27.735 60.153 6.073 6.073 12.822 11.225 20.072 15.395v29.381c0 6.631-3.938 12.602-10.033 15.212l-73.343 31.411c-17.525 7.506-28.85 24.674-28.85 43.738v69.758c0 4.143 3.357 7.5 7.5 7.5s7.5-3.357 7.5-7.5v-69.758c0-13.055 7.754-24.811 19.755-29.949l45.406-19.446v47.524h-24.563c-12.976 0-23.532 10.557-23.532 23.532v32.064c0 12.976 10.557 23.532 23.532 23.532 4.143 0 7.5-3.357 7.5-7.5s-3.357-7.5-7.5-7.5c-4.705 0-8.532-3.827-8.532-8.532v-32.064c0-4.705 3.827-8.532 8.532-8.532h64.129c4.705 0 8.532 3.827 8.532 8.532v32.064c0 4.705-3.827 8.532-8.532 8.532-4.143 0-7.5 3.357-7.5 7.5s3.357 7.5 7.5 7.5c12.976 0 23.532-10.557 23.532-23.532v-32.064c0-12.976-10.557-23.532-23.532-23.532h-24.564v-42.615l51.592 34.395c3.965 2.643 8.509 3.964 13.054 3.964 4.544 0 9.089-1.322 13.054-3.965l51.592-34.395v59.556c-13.786 3.375-24.049 15.828-24.049 30.64 0 17.396 14.152 31.549 31.549 31.549 17.396 0 31.548-14.152 31.548-31.549 0-14.811-10.262-27.264-24.048-30.64v-64.465l45.407 19.446c12 5.139 19.754 16.895 19.754 29.949v69.759c0 4.143 3.357 7.5 7.5 7.5s7.5-3.357 7.5-7.5v-69.758c-.001-19.064-11.326-36.232-28.85-43.738zm-186.725-329.15c4.647-26.581 27.876-46.854 55.767-46.854 27.911 0 51.154 20.302 55.777 46.911-16.667-8.813-35.648-13.814-55.777-13.814-19.67 0-38.735 4.779-55.767 13.757zm-24.909 170.097c0-1.989-.79-3.896-2.197-5.304-1.406-1.406-3.314-2.196-5.304-2.196l-10.881.001c-7.006 0-12.987-4.929-13.617-11.222-.362-3.614.764-7.069 3.17-9.729 2.376-2.625 5.767-4.131 9.304-4.131h12.023c12.976 0 23.532-10.557 23.532-23.564 0-.737.591-1.349 1.405-1.452 42.946-5.513 78.326-19.516 101.579-31.079 14.595.519 26.307 12.554 26.307 27.272v5.291c0 12.976 10.557 23.532 23.532 23.532h10.879c7.006 0 12.988 4.929 13.618 11.221.362 3.614-.764 7.069-3.17 9.729-2.375 2.625-5.766 4.131-9.304 4.131l-12.024.001c-4.142 0-7.499 3.358-7.499 7.5 0 44.485-36.191 80.677-80.677 80.677-21.55 0-41.81-8.392-57.048-23.63-15.236-15.238-23.628-35.498-23.628-57.048zm85.409 180.218c-2.874 1.917-6.591 1.918-9.467.001l-53.798-35.866 6.824-2.922c11.619-4.977 19.127-16.36 19.127-29.001v-22.42c10.309 3.724 21.295 5.668 32.582 5.668 11.435 0 22.406-2.023 32.58-5.719v22.471c0 12.641 7.508 24.024 19.127 29.001l6.824 2.922zm83.96 68.282c0 9.125-7.423 16.549-16.548 16.549s-16.549-7.424-16.549-16.549 7.424-16.548 16.549-16.548 16.548 7.423 16.548 16.548z"/><path d="m215.919 200.403c-4.143 0-7.5 3.357-7.5 7.5v8.016c0 4.143 3.357 7.5 7.5 7.5s7.5-3.357 7.5-7.5v-8.016c0-4.142-3.357-7.5-7.5-7.5z"/><path d="m296.081 223.419c4.143 0 7.5-3.357 7.5-7.5v-8.016c0-4.143-3.357-7.5-7.5-7.5s-7.5 3.357-7.5 7.5v8.016c0 4.143 3.357 7.5 7.5 7.5z"/><path d="m285.836 251.229c-2.636-3.196-7.361-3.65-10.558-1.017-4.86 4.006-11.887 6.304-19.278 6.304s-14.418-2.298-19.278-6.304c-3.197-2.636-7.924-2.18-10.558 1.017-2.635 3.196-2.18 7.923 1.017 10.558 7.611 6.274 17.847 9.729 28.819 9.729s21.208-3.455 28.819-9.729c3.197-2.635 3.652-7.361 1.017-10.558z"/><path d="m495.909 365.473-31.651-10.55c-.212-.071-.354-.269-.354-.491v-20.624c14.515-10.042 24.048-26.796 24.048-45.743v-24.048c0-21.816-17.749-39.565-39.564-39.565h-32.064c-21.815 0-39.564 17.749-39.564 39.565v24.048c0 18.947 9.534 35.702 24.049 45.744v20.623c0 .223-.143.42-.353.49l-10.551 3.517c-3.93 1.31-6.054 5.558-4.744 9.486 1.048 3.144 3.974 5.131 7.114 5.131.786 0 1.586-.125 2.372-.387l6.755-2.252 21.645 16.233c2.741 2.056 6.025 3.083 9.311 3.083 3.284 0 6.568-1.027 9.309-3.083l15.255-11.44v34.845c-9.308 3.139-16.032 11.946-16.032 22.3 0 12.976 10.557 23.532 23.532 23.532s23.532-10.557 23.532-23.532c0-10.353-6.724-19.16-16.032-22.3v-36.767l19.247 6.415c3.489 1.163 5.834 4.415 5.834 8.094v60.59c0 4.143 3.357 7.5 7.5 7.5s7.5-3.357 7.5-7.5v-60.59c-.003-10.146-6.47-19.117-16.094-22.324zm-104.151-77.409v-24.048c0-13.546 11.02-24.565 24.564-24.565h32.064c13.545 0 24.564 11.02 24.564 24.565v24.048c0 22.385-18.212 40.597-40.597 40.597s-40.595-18.212-40.595-40.597zm40.905 86.587c-.182.135-.437.136-.618-.001l-17.833-13.374c1.024-2.083 1.594-4.411 1.594-6.845v-13.286c5.229 1.634 10.787 2.515 16.548 2.515s11.319-.882 16.549-2.515v13.286c0 2.434.571 4.762 1.594 6.845zm31.756 66.236c-4.705 0-8.532-3.827-8.532-8.532s3.827-8.532 8.532-8.532 8.532 3.827 8.532 8.532-3.827 8.532-8.532 8.532z"/><path d="m70.335 386.649c2.741 2.057 6.025 3.084 9.311 3.084 3.284 0 6.568-1.027 9.31-3.083l21.645-16.233 6.755 2.251c.786.263 1.586.387 2.372.387 3.14 0 6.066-1.987 7.114-5.131 1.31-3.929-.814-8.177-4.744-9.486l-10.549-3.516c-.212-.071-.354-.269-.354-.491v-20.623c14.515-10.042 24.049-26.797 24.049-45.744v-32.064c0-17.396-14.152-31.549-31.549-31.549h-48.098c-17.396 0-31.548 14.152-31.548 31.549v32.064c0 18.947 9.533 35.701 24.048 45.743v20.624c0 .223-.143.42-.354.49l-31.651 10.551c-9.625 3.208-16.092 12.179-16.092 22.325v60.59c0 4.143 3.357 7.5 7.5 7.5s7.5-3.357 7.5-7.5v-60.59c0-3.679 2.345-6.931 5.835-8.094l27.262-9.088v38.207h-8.532c-8.556 0-15.516 6.961-15.516 15.517v16.032c0 8.556 6.96 15.516 15.516 15.516 4.143 0 7.5-3.357 7.5-7.5s-3.357-7.5-7.5-7.5c-.284 0-.516-.231-.516-.516v-16.032c0-.285.231-.517.516-.517h32.064c.285 0 .517.231.517.517v16.032c0 .284-.231.516-.517.516-4.143 0-7.5 3.357-7.5 7.5s3.357 7.5 7.5 7.5c8.556 0 15.517-6.96 15.517-15.516v-16.032c0-8.556-6.961-15.517-15.517-15.517h-8.532v-27.601zm-14.738-147.198h48.097c9.125 0 16.549 7.424 16.549 16.549v16.235c-24.056-2.006-40.927-13.177-47.446-18.246-5.493-4.271-13.226-4.331-18.802-.15l-14.945 11.21v-9.049c-.001-9.125 7.422-16.549 16.547-16.549zm-16.548 48.613v-4.266l23.945-17.96c.115-.087.347-.2.594-.008 9.585 7.451 29.111 19.531 56.654 21.449v.784c0 22.385-18.212 40.597-40.597 40.597s-40.596-18.211-40.596-40.596zm40.597 55.597c5.76 0 11.319-.881 16.548-2.515v13.286c0 2.434.57 4.762 1.594 6.845l-17.833 13.373c-.182.137-.438.137-.619 0l-17.833-13.374c1.024-2.083 1.594-4.411 1.594-6.845v-13.286c5.229 1.635 10.788 2.516 16.549 2.516z"/></g></svg>