<?xml version="1.0"?>
<svg xmlns="http://www.w3.org/2000/svg" id="Icons" viewBox="0 0 60 60"><path d="M56,26a4,4,0,0,0-3.858,3H48.789a11.114,11.114,0,0,0-1.935-12.784A10.628,10.628,0,0,0,41,13.159V12a2,2,0,0,1,2-2h6.142a4,4,0,1,0,0-2H43a4,4,0,0,0-4,4v1.011a10.637,10.637,0,0,0-7.409,3.2l-.591.6V7.858a4,4,0,1,0-2,0v8.958l-.591-.6A10.589,10.589,0,0,0,22,13.08V11a4,4,0,0,0-4-4H11.858a4,4,0,1,0,0,2H18a2,2,0,0,1,2,2v2.048a10.624,10.624,0,0,0-6.852,3.167A11.093,11.093,0,0,0,11.219,29H7.858a4,4,0,1,0,0,2h4.687c.193.232.389.462.6.681L19,37.628V48a2,2,0,0,1-2,2H10.858a4,4,0,1,0,0,2H17a4,4,0,0,0,4-4V39.661l7.642,7.768a1.881,1.881,0,0,0,.358.28v4.433a4,4,0,1,0,2,0V47.71a1.922,1.922,0,0,0,.358-.28L38,40.679V49a4,4,0,0,0,4,4h6.142a4,4,0,1,0,0-2H42a2,2,0,0,1-2-2V38.646l6.853-6.965c.214-.219.413-.448.607-.681h4.682A3.993,3.993,0,1,0,56,26ZM53,7a2,2,0,1,1-2,2A2,2,0,0,1,53,7ZM8,10a2,2,0,1,1,2-2A2,2,0,0,1,8,10ZM4,32a2,2,0,1,1,2-2A2,2,0,0,1,4,32ZM7,53a2,2,0,1,1,2-2A2,2,0,0,1,7,53Zm45-3a2,2,0,1,1-2,2A2,2,0,0,1,52,50ZM28,4a2,2,0,1,1,2,2A2,2,0,0,1,28,4Zm4,52a2,2,0,1,1-2-2A2,2,0,0,1,32,56ZM45.427,30.278,30,45.958,14.575,30.279a9.077,9.077,0,0,1,0-12.66,8.643,8.643,0,0,1,6.179-2.608h.037a8.674,8.674,0,0,1,6.2,2.606l2.3,2.343a1.029,1.029,0,0,0,1.426,0l2.3-2.343A8.659,8.659,0,0,1,39.226,15h.005a8.638,8.638,0,0,1,6.2,2.619A8.986,8.986,0,0,1,48,23.938v.009A8.909,8.909,0,0,1,45.427,30.278ZM56,32a2,2,0,1,1,2-2A2,2,0,0,1,56,32Z"/><path d="M35,28H33V26a2,2,0,0,0-2-2H29a2,2,0,0,0-2,2v2H25a2,2,0,0,0-2,2v2a2,2,0,0,0,2,2h2v2a2,2,0,0,0,2,2h2a2,2,0,0,0,2-2V34h2a2,2,0,0,0,2-2V30A2,2,0,0,0,35,28Zm0,4H32a1,1,0,0,0-1,1v3H29V33a1,1,0,0,0-1-1H25V30h3a1,1,0,0,0,1-1V26h2v3a1,1,0,0,0,1,1l3,0Z"/></svg>
